<svg width="25" height="14" viewBox="0 0 25 14" fill="none" xmlns="http://www.w3.org/2000/svg">
<path fill-rule="evenodd" clip-rule="evenodd" d="M23.6331 0.948C23.7991 0.402 23.6331 0 22.8381 0H20.2131C19.5451 0 19.2371 0.347 19.0701 0.73C19.0701 0.73 17.7351 3.926 15.8441 6.002C15.2321 6.604 14.9541 6.795 14.6201 6.795C14.4531 6.795 14.2021 6.604 14.2021 6.057V0.948C14.2021 0.292 14.0181 0 13.4621 0H9.33411C8.91711 0 8.66611 0.304 8.66611 0.593C8.66611 1.214 9.61211 1.358 9.70911 3.106V6.904C9.70911 7.737 9.5561 7.888 9.22211 7.888C8.3321 7.888 6.16711 4.677 4.88211 1.003C4.63311 0.288 4.38111 0 3.71011 0H1.08311C0.333105 0 0.183105 0.347 0.183105 0.73C0.183105 1.412 1.07311 4.8 4.32811 9.281C6.49811 12.341 9.55311 14 12.3361 14C14.0051 14 14.2111 13.632 14.2111 12.997V10.684C14.2111 9.947 14.3691 9.8 14.8981 9.8C15.2881 9.8 15.9551 9.992 17.5131 11.467C19.2931 13.216 19.5861 14 20.5881 14H23.2131C23.9631 14 24.3391 13.632 24.1231 12.904C23.8851 12.18 23.0351 11.129 21.9081 9.882C21.2961 9.172 20.3781 8.407 20.0991 8.024C19.7101 7.533 19.8211 7.314 20.0991 6.877C20.0991 6.877 23.2991 2.451 23.6321 0.948H23.6331Z" fill="white"/>
</svg>
