<svg width="28" height="36" viewBox="0 0 28 36" fill="none" xmlns="http://www.w3.org/2000/svg">
<path d="M13.8332 0.949951H13.7332L0.233154 2.34995V27.05L13.7332 35.0499L27.1332 27.05V2.34995L13.8332 0.949951ZM25.2332 13.05L13.7332 6.24995V6.14995H13.6332L13.5332 6.04995V6.14995L2.13315 13.05V4.04995L13.6332 2.84995L25.2332 4.04995V13.05ZM13.6332 7.74995L25.1332 14.45L20.6332 17.05L13.5332 12.85V14.25L19.4332 17.75L18.5332 18.25L13.5332 15.25V16.65L17.3332 18.95L16.5332 19.45L13.5332 17.65V19.05L15.4332 20.15L13.6332 21.25L2.23315 14.55L13.6332 7.74995ZM2.13315 16.05L13.5332 22.85V23.85L5.63315 19.15V20.55L13.6332 25.35V26.45L5.63315 21.75V23.15L13.6332 27.95L21.7332 23.05V17.85L25.1332 15.85V25.85L13.6332 32.75L2.13315 25.95V16.05Z" fill="currentColor"/>
</svg>
